# xmcd
#
# Track frame offsets: 
#        150
#        14523
#        28688
#        43400
#        59970
#        76288
#        87683
#        100623
#        116703
#        132025
#        150605
#        165783
#        182823
#        200108
#        215100
#        224825
#        239403
#        255020
#        268845
#        283848
#        297125
#        310315
#
# Disc length: 4353 seconds
#
# Revision: 6
# Processed by: cddbd v1.5.2PL0 Copyright (c) Steve Scherf et al.
# Submitted via: ExactAudioCopyFreeDBPlugin 1.0
#
DISCID=5610ff16
DTITLE=Various Artist - The Complete Stax-Volt Singles, 1959-1975
DYEAR=1994
DGENRE=Soul
TTITLE0=Frederick Knight - This is My Song of Love to You
TTITLE1=The M.G.'s - Sugarcone
TTITLE2=The Soul Children - Love is a Hurtin' Thing
TTITLE3=Eddie Floyd - Baby, Lay Your Head Down (Gently on My Bed)
TTITLE4=Eddie Floyd - Check Me Out
TTITLE5=The Emotions - Runnin' Back (And Forth)
TTITLE6=Inez Foxx - Crossing Over the Bridge
TTITLE7=The Temprees - Love's Maze
TTITLE8=The Bar-Kays - It Ain't Easy
TTITLE9=Carla Thomas - Love Among People
TTITLE10=Little Milton - What it Is
TTITLE11=William Bell - I've Got to Go on Without You
TTITLE12=Eric Mercury - Love is Taking Over
TTITLE13=Joe Hicks - Ruby Dean
TTITLE14=The Mad Lads - I'm So Glad I Fell in Love with You
TTITLE15=The Dramatics - Fell for You
TTITLE16=Johnnie Taylor - Cheaper to Keep Her
TTITLE17=Rufus Thomas - I Know You Don't Want Me No More
TTITLE18=The Staple Singers - If You're Ready (Come Go with Me)
TTITLE19=The Sweet Inspirations - Slipped and Tripped
TTITLE20=The Emotions - Peace Be Still
TTITLE21=The Soul Children - I'll Be the Other Woman
EXTD=
EXTT0=
EXTT1=
EXTT2=
EXTT3=
EXTT4=
EXTT5=
EXTT6=
EXTT7=
EXTT8=
EXTT9=
EXTT10=
EXTT11=
EXTT12=
EXTT13=
EXTT14=
EXTT15=
EXTT16=
EXTT17=
EXTT18=
EXTT19=
EXTT20=
EXTT21=
PLAYORDER=
